# xmcd
# 
# Track frame offsets:
#     150
#     30253
#     60138
#     96426
#     128251
#     148517
#     198118
#     251636
#     273341
#     308739
# 
# Disc length: 4314
# 
# Revision: 2
# Processed by: cddbd v1.5.2PL0 Copyright (c) Steve Scherf et al.
# Submitted via: fre:ac v1.0.17
# 
DISCID=7710d80a
DTITLE=Luther Allison - Songs From The Road
DYEAR=2009
DGENRE=Blues
TTITLE0=Cancel My Check
TTITLE1=Living In The House Of The Blues
TTITLE2=What Have I Done Wrong
TTITLE3=Will It Ever Change
TTITLE4=You Can, You Can
TTITLE5=There Comes A Time
TTITLE6=(Watching You) Cherry Red Wine
TTITLE7=Low Down And Dirty
TTITLE8=It Hurts Me Too
TTITLE9=Serious
EXTD=YEAR: 2009
EXTT0=
EXTT1=
EXTT2=
EXTT3=
EXTT4=
EXTT5=
EXTT6=
EXTT7=
EXTT8=
EXTT9=
PLAYORDER=
